<svg version="1.1" preserveAspectRatio="none" xmlns="http://www.w3.org/2000/svg" width="500" height="500" viewBox="0 0 500 500"><rect width="100%" height="100%" fill="#FFFFFF" fill-opacity="1"/><svg viewBox="518.3222 453.4463 524.8403 88" width="333" height="55.834127066843" x="83.5px" y="222.0829px" xmlns="http://www.w3.org/2000/svg" xmlns:xlink="http://www.w3.org/1999/xlink" preserveAspectRatio="none"><defs></defs><style>.background {fill:#FFFFFF;fill-opacity:1;}.icon1 {fill:#0000FF;fill-opacity:1;}.icon1-str {stroke:#0000FF;stroke-opacity:1;}.icon2 {fill:#A9FF94;fill-opacity:1;}.icon3 {fill:#7AE061;fill-opacity:0.95;}.icon3-str {stroke:#7AE061;stroke-opacity:0.95;}.icon4 {fill:#64CC4B;fill-opacity:1;}.icon5 {fill:#9B9BFF;fill-opacity:1;}.icon6 {fill:#E6FFDF;fill-opacity:0.95;}.icon7 {fill:#C6C6FF;fill-opacity:1;}.icon8 {fill:#EFAFAA;fill-opacity:1;}</style><g opacity="1" transform="rotate(0 602.3221 453.4463)">
<svg width="440.8404" height="88" x="602.3221" y="453.4463" version="1.1" preserveAspectRatio="none" viewBox="0 0 440.8404 88">
  <defs><rect x="0" y="0" width="440.8404" height="88" rx="0px" ry="0px" id="id-B7crM0kCi1720980745495"></rect></defs><use class="icon1 icon3-str" style="stroke-width:0;" xlink:href="#id-B7crM0kCi1720980745495"></use>
</svg>
</g><g opacity="1" transform="rotate(0 632.3221 483.4463)">
<svg width="380.8404" height="28" x="632.3221" y="483.4463" version="1.1" preserveAspectRatio="none" viewBox="-0.36 -29.68 408.04 30">
  <g transform="matrix(1 0 0 1 0 0)" class="background"><path id="id-D6z1nYkh17" d="M24.24 0L21.76-6L8.76-6L6.28 0L-0.36 0L12.12-28L18.52-28L31.04 0L24.24 0ZM10.84-10.92L19.72-10.92L15.28-21.64L10.84-10.92Z M49-29.68L55.24-29.68L55.24 0L49.28 0L49.28-2.48Q46.96 0.32 42.56 0.32L42.56 0.32Q39.52 0.32 37.06-1.04Q34.60-2.40 33.20-4.92Q31.80-7.44 31.80-10.76L31.80-10.76Q31.80-14.08 33.20-16.60Q34.60-19.12 37.06-20.48Q39.52-21.84 42.56-21.84L42.56-21.84Q46.68-21.84 49-19.24L49-19.24L49-29.68ZM43.64-4.80Q46-4.80 47.56-6.42Q49.12-8.04 49.12-10.76L49.12-10.76Q49.12-13.48 47.56-15.10Q46-16.72 43.64-16.72L43.64-16.72Q41.24-16.72 39.68-15.10Q38.12-13.48 38.12-10.76L38.12-10.76Q38.12-8.04 39.68-6.42Q41.24-4.80 43.64-4.80L43.64-4.80Z M76.36-21.52L82.36-21.52L73.28 0L66.84 0L57.80-21.52L64.24-21.52L70.20-6.88L76.36-21.52Z M105.40-10.68Q105.40-10.56 105.28-9L105.28-9L89.00-9Q89.44-7 91.08-5.84Q92.72-4.68 95.16-4.68L95.16-4.68Q96.84-4.68 98.14-5.18Q99.44-5.68 100.56-6.76L100.56-6.76L103.88-3.16Q100.84 0.32 95.00 0.32L95.00 0.32Q91.36 0.32 88.56-1.10Q85.76-2.52 84.24-5.04Q82.72-7.56 82.72-10.76L82.72-10.76Q82.72-13.92 84.22-16.46Q85.72-19 88.34-20.42Q90.96-21.84 94.20-21.84L94.20-21.84Q97.36-21.84 99.92-20.48Q102.48-19.12 103.94-16.58Q105.40-14.04 105.40-10.68L105.40-10.68ZM94.24-17.12Q92.12-17.12 90.68-15.92Q89.24-14.72 88.92-12.64L88.92-12.64L99.52-12.64Q99.20-14.68 97.76-15.90Q96.32-17.12 94.24-17.12L94.24-17.12Z M122.64-21.84Q126.64-21.84 129.10-19.44Q131.56-17.04 131.56-12.32L131.56-12.32L131.56 0L125.32 0L125.32-11.36Q125.32-13.92 124.20-15.18Q123.08-16.44 120.96-16.44L120.96-16.44Q118.60-16.44 117.20-14.98Q115.80-13.52 115.80-10.64L115.80-10.64L115.80 0L109.56 0L109.56-21.52L115.52-21.52L115.52-19Q116.76-20.36 118.60-21.10Q120.44-21.84 122.64-21.84L122.64-21.84Z M149.40-5.44L151.08-1.04Q150.16-0.36 148.82-0.02Q147.48 0.32 146 0.32L146 0.32Q142.16 0.32 140.06-1.64Q137.96-3.60 137.96-7.40L137.96-7.40L137.96-16.24L134.64-16.24L134.64-21.04L137.96-21.04L137.96-26.28L144.20-26.28L144.20-21.04L149.56-21.04L149.56-16.24L144.20-16.24L144.20-7.48Q144.20-6.12 144.90-5.38Q145.60-4.64 146.88-4.64L146.88-4.64Q148.36-4.64 149.40-5.44L149.40-5.44Z M170.04-21.52L176.28-21.52L176.28 0L170.36 0L170.36-2.56Q169.12-1.16 167.40-0.42Q165.68 0.32 163.68 0.32L163.68 0.32Q159.44 0.32 156.96-2.12Q154.48-4.56 154.48-9.36L154.48-9.36L154.48-21.52L160.72-21.52L160.72-10.28Q160.72-5.08 165.08-5.08L165.08-5.08Q167.32-5.08 168.68-6.54Q170.04-8 170.04-10.88L170.04-10.88L170.04-21.52Z M188.04-18.68Q189.16-20.24 191.06-21.04Q192.96-21.84 195.44-21.84L195.44-21.84L195.44-16.08Q194.40-16.16 194.04-16.16L194.04-16.16Q191.36-16.16 189.84-14.66Q188.32-13.16 188.32-10.16L188.32-10.16L188.32 0L182.08 0L182.08-21.52L188.04-21.52L188.04-18.68Z M220.04-10.68Q220.04-10.56 219.92-9L219.92-9L203.64-9Q204.08-7 205.72-5.84Q207.36-4.68 209.80-4.68L209.80-4.68Q211.48-4.68 212.78-5.18Q214.08-5.68 215.20-6.76L215.20-6.76L218.52-3.16Q215.48 0.32 209.64 0.32L209.64 0.32Q206.00 0.32 203.20-1.10Q200.40-2.52 198.88-5.04Q197.36-7.56 197.36-10.76L197.36-10.76Q197.36-13.92 198.86-16.46Q200.36-19 202.98-20.42Q205.60-21.84 208.84-21.84L208.84-21.84Q212.00-21.84 214.56-20.48Q217.12-19.12 218.58-16.58Q220.04-14.04 220.04-10.68L220.04-10.68ZM208.88-17.12Q206.76-17.12 205.32-15.92Q203.88-14.72 203.56-12.64L203.56-12.64L214.16-12.64Q213.84-14.68 212.40-15.90Q210.96-17.12 208.88-17.12L208.88-17.12Z M231.44 0.32Q228.76 0.32 226.20-0.34Q223.64-1 222.12-2L222.12-2L224.20-6.48Q225.64-5.56 227.68-4.98Q229.72-4.40 231.68-4.40L231.68-4.40Q235.64-4.40 235.64-6.36L235.64-6.36Q235.64-7.28 234.56-7.68Q233.48-8.08 231.24-8.36L231.24-8.36Q228.60-8.76 226.88-9.28Q225.16-9.80 223.90-11.12Q222.64-12.44 222.64-14.88L222.64-14.88Q222.64-16.92 223.82-18.50Q225-20.08 227.26-20.96Q229.52-21.84 232.60-21.84L232.60-21.84Q234.88-21.84 237.14-21.34Q239.40-20.84 240.88-19.96L240.88-19.96L238.80-15.52Q235.96-17.12 232.60-17.12L232.60-17.12Q230.60-17.12 229.60-16.56Q228.60-16 228.60-15.12L228.60-15.12Q228.60-14.12 229.68-13.72Q230.76-13.32 233.12-12.96L233.12-12.96Q235.76-12.52 237.44-12.02Q239.12-11.52 240.36-10.20Q241.60-8.88 241.60-6.52L241.60-6.52Q241.60-4.52 240.40-2.96Q239.20-1.40 236.90-0.54Q234.60 0.32 231.44 0.32L231.44 0.32Z M251.68 0L251.68-22.72L242.72-22.72L242.72-28L267.12-28L267.12-22.72L258.16-22.72L258.16 0L251.68 0Z M275.64-18.68Q276.76-20.24 278.66-21.04Q280.56-21.84 283.04-21.84L283.04-21.84L283.04-16.08Q282.00-16.16 281.64-16.16L281.64-16.16Q278.96-16.16 277.44-14.66Q275.92-13.16 275.92-10.16L275.92-10.16L275.92 0L269.68 0L269.68-21.52L275.64-21.52L275.64-18.68Z M295.32-21.84Q300.32-21.84 303-19.46Q305.68-17.08 305.68-12.28L305.68-12.28L305.68 0L299.84 0L299.84-2.68Q298.08 0.32 293.28 0.32L293.28 0.32Q290.80 0.32 288.98-0.52Q287.16-1.36 286.20-2.84Q285.24-4.32 285.24-6.20L285.24-6.20Q285.24-9.20 287.50-10.92Q289.76-12.64 294.48-12.64L294.48-12.64L299.44-12.64Q299.44-14.68 298.20-15.78Q296.96-16.88 294.48-16.88L294.48-16.88Q292.76-16.88 291.10-16.34Q289.44-15.80 288.28-14.88L288.28-14.88L286.04-19.24Q287.80-20.48 290.26-21.16Q292.72-21.84 295.32-21.84L295.32-21.84ZM294.84-3.88Q296.44-3.88 297.68-4.62Q298.92-5.36 299.44-6.80L299.44-6.80L299.44-9L295.16-9Q291.32-9 291.32-6.48L291.32-6.48Q291.32-5.28 292.26-4.58Q293.20-3.88 294.84-3.88L294.84-3.88Z M321.96 0.32Q318.52 0.32 315.78-1.10Q313.04-2.52 311.50-5.04Q309.96-7.56 309.96-10.76L309.96-10.76Q309.96-13.96 311.50-16.48Q313.04-19 315.78-20.42Q318.52-21.84 321.96-21.84L321.96-21.84Q325.36-21.84 327.90-20.42Q330.44-19 331.60-16.36L331.60-16.36L326.76-13.76Q325.08-16.72 321.92-16.72L321.92-16.72Q319.48-16.72 317.88-15.12Q316.28-13.52 316.28-10.76L316.28-10.76Q316.28-8 317.88-6.40Q319.48-4.80 321.92-4.80L321.92-4.80Q325.12-4.80 326.76-7.76L326.76-7.76L331.60-5.12Q330.44-2.56 327.90-1.12Q325.36 0.32 321.96 0.32L321.96 0.32Z M351.08 0L344.28-8.44L341.28-5.48L341.28 0L335.04 0L335.04-29.68L341.28-29.68L341.28-12.88L350.40-21.52L357.84-21.52L348.88-12.40L358.64 0L351.08 0Z M381.60-10.68Q381.60-10.56 381.48-9L381.48-9L365.20-9Q365.64-7 367.28-5.84Q368.92-4.68 371.36-4.68L371.36-4.68Q373.04-4.68 374.34-5.18Q375.64-5.68 376.76-6.76L376.76-6.76L380.08-3.16Q377.04 0.32 371.20 0.32L371.20 0.32Q367.56 0.32 364.76-1.10Q361.96-2.52 360.44-5.04Q358.92-7.56 358.92-10.76L358.92-10.76Q358.92-13.92 360.42-16.46Q361.92-19 364.54-20.42Q367.16-21.84 370.40-21.84L370.40-21.84Q373.56-21.84 376.12-20.48Q378.68-19.12 380.14-16.58Q381.60-14.04 381.60-10.68L381.60-10.68ZM370.44-17.12Q368.32-17.12 366.88-15.92Q365.44-14.72 365.12-12.64L365.12-12.64L375.72-12.64Q375.40-14.68 373.96-15.90Q372.52-17.12 370.44-17.12L370.44-17.12Z M401.44-29.68L407.68-29.68L407.68 0L401.72 0L401.72-2.48Q399.40 0.32 395.00 0.32L395.00 0.32Q391.96 0.32 389.50-1.04Q387.04-2.40 385.64-4.92Q384.24-7.44 384.24-10.76L384.24-10.76Q384.24-14.08 385.64-16.60Q387.04-19.12 389.50-20.48Q391.96-21.84 395.00-21.84L395.00-21.84Q399.12-21.84 401.44-19.24L401.44-19.24L401.44-29.68ZM396.08-4.80Q398.44-4.80 400.00-6.42Q401.56-8.04 401.56-10.76L401.56-10.76Q401.56-13.48 400.00-15.10Q398.44-16.72 396.08-16.72L396.08-16.72Q393.68-16.72 392.12-15.10Q390.56-13.48 390.56-10.76L390.56-10.76Q390.56-8.04 392.12-6.42Q393.68-4.80 396.08-4.80L396.08-4.80Z"/></g>
</svg>
</g><g opacity="1" transform="rotate(0 518.3222 453.4463)">
<svg width="87.9999" height="88" x="518.3222" y="453.4463" version="1.1" preserveAspectRatio="none" viewBox="0 0 87.9999 88">
  <defs><rect x="1.759998" y="1.759998" width="84.47990399999999" height="84.480004" rx="0px" ry="0px" id="id-tBXipXk0b1720980745495"></rect></defs><use class="background icon1-str" style="stroke-width:3.519996;" xlink:href="#id-tBXipXk0b1720980745495"></use>
</svg>
</g><g opacity="1" transform="rotate(0 538.3222 480.2495)">
<svg width="47.9999" height="34.3936" x="538.3222" y="480.2495" version="1.1" preserveAspectRatio="none" viewBox="43.45615005493164 59.500999450683594 113.044189453125 80.9999771118164">
  <g transform="matrix(1 0 0 1 0 0)"><g><path d="M155.756 127.628a1.902 1.902 0 0 0-2.668.349c-10.625 13.81-28.242 8.822-45.303 1.725 4.433-7.755 20.456-36.523 20.456-47.142 0-12.714-10.37-23.059-23.117-23.059S82.007 69.845 82.007 82.559c0 9.498 12.724 33.525 18.553 44.035l-1.699-.747c-1.049-.461-2.083-.916-3.102-1.361-4.614-2.264-8.298-4.561-11.652-6.667-4.748-2.984-8.849-5.558-14.17-7.188-8.166-2.5-18.183-.203-25.146 2.166a1.9 1.9 0 1 0 1.227 3.595c6.434-2.188 15.611-4.334 22.802-2.131 3.544 1.085 6.589 2.7 9.741 4.598-9.342-.989-17.692 2.078-23.566 5.285a1.897 1.897 0 0 0-.756 2.579 1.906 1.906 0 0 0 2.583.754c6.87-3.748 17.423-7.331 28.69-3.115 2.693 1.008 5.592 2.239 8.638 3.569a92.305 92.305 0 0 0 7.255 3.18c.859.373 1.731.74 2.603 1.111.113.074.237.106.364.155 9.984 4.235 20.672 8.124 30.394 8.124 8.128 0 15.574-2.715 21.341-10.209a1.898 1.898 0 0 0-.351-2.664zm-50.632-64.33c10.647 0 19.309 8.642 19.309 19.262 0 8.397-12.752 32.584-19.389 44.269-6.585-11.688-19.23-35.87-19.23-44.269 0-10.62 8.662-19.262 19.31-19.262z" data-color="1" class="icon1"></path><path d="M118.936 81.875c0-7.596-6.197-13.777-13.813-13.777-7.616 0-13.813 6.182-13.813 13.777 0 7.598 6.197 13.78 13.813 13.78 7.617-.001 13.813-6.182 13.813-13.78zm-23.818 0c0-5.502 4.489-9.979 10.005-9.979 5.516 0 10.005 4.478 10.005 9.979 0 5.504-4.489 9.982-10.005 9.982-5.516-.001-10.005-4.478-10.005-9.982z" data-color="1" class="icon1"></path></g></g>
</svg>
</g></svg></svg>