<svg version="1.1" preserveAspectRatio="none" xmlns="http://www.w3.org/2000/svg" width="500" height="500" viewBox="0 0 500 500"><rect width="100%" height="100%" fill="#3390BC" fill-opacity="1"/><svg viewBox="70.8157 72.7946 370.658 241.7306" width="333" height="217.17132720729083" x="83.5px" y="141.4143px" xmlns="http://www.w3.org/2000/svg" xmlns:xlink="http://www.w3.org/1999/xlink" preserveAspectRatio="none"><defs></defs><style>.aLgOaV3zRcolors-3 {fill:#FFBFBA;fill-opacity:1;}.aLgOaV3zRcolors-4 {fill:#45B6ED;fill-opacity:1;}.aLgOaV3zRcolors-5 {fill:#0A0A0A;fill-opacity:1;}.aLgOaV3zRcolors-6 {fill:#F1F1F1;fill-opacity:1;}.aLgOaV3zRcolors-7 {fill:#3390BC;fill-opacity:1;}.companyName {fill:#FFBFBA;fill-opacity:1;}.icon1 {fill:#0A0A0A;fill-opacity:1;}.icon2 {fill:#45B6ED;fill-opacity:1;}.icon3 {fill:#F1F1F1;fill-opacity:1;}.icon3-str {stroke:#F1F1F1;stroke-opacity:1;}</style><g opacity="1" transform="rotate(0 70.8157 286.5252)">
<svg width="370.658" height="28" x="70.8157" y="286.5252" version="1.1" preserveAspectRatio="none" viewBox="-0.52 -33.2 445.31999999999994 33.64">
  <g transform="matrix(1 0 0 1 0 0)" class="companyName"><path id="id-D6z1nYkh17" d="M20.96-6.92L20.04-9.32L8.72-9.32Q6.84-5.08 6.84-3.44L6.84-3.44Q6.84-2.24 7.74-1.92Q8.64-1.60 10.44-1.60L10.44-1.60L10.44 0L-0.52 0L-0.52-1.60Q0.44-1.72 1.14-1.92Q1.84-2.12 2.38-2.48Q2.92-2.84 3.32-3.42Q3.72-4 4.08-4.84L4.08-4.84L14.60-31.20L17.56-31.20L27.12-7.84Q27.96-5.80 28.54-4.64Q29.12-3.48 29.78-2.86Q30.44-2.24 31.30-2Q32.16-1.76 33.52-1.64L33.52-1.64L33.52 0L18.40 0L18.40-1.64Q20.32-1.72 21.16-2.04Q22-2.36 22-3.32L22-3.32Q22-3.88 21.72-4.76Q21.44-5.64 20.96-6.92L20.96-6.92ZM14.40-23.84L9.64-11.72L19.16-11.72L14.56-23.84L14.40-23.84Z M52.92 0.40L52.92-2.56L52.76-2.56Q50 0.40 45.60 0.40L45.60 0.40Q43.32 0.40 41.42-0.40Q39.52-1.20 38.14-2.64Q36.76-4.08 36-6.06Q35.24-8.04 35.24-10.44L35.24-10.44Q35.24-12.84 36.02-14.88Q36.80-16.92 38.14-18.42Q39.48-19.92 41.34-20.76Q43.20-21.60 45.36-21.60L45.36-21.60Q47.36-21.60 48.90-21Q50.44-20.40 51.60-18.96L51.60-18.96L51.76-18.96L51.76-22.36Q51.76-24.72 51.70-26.42Q51.64-28.12 51.52-28.64L51.52-28.64Q51.32-29.48 50.30-29.86Q49.28-30.24 47.16-30.24L47.16-30.24L47.16-31.60L57.28-33.20L57.28-10.32Q57.28-7.32 57.34-5.70Q57.40-4.08 57.56-3.24L57.56-3.24Q57.64-2.72 57.80-2.40Q57.96-2.08 58.28-1.90Q58.60-1.72 59.14-1.66Q59.68-1.60 60.52-1.60L60.52-1.60L60.52-0.04L52.92 0.40ZM51.68-9.92L51.68-11.48Q51.68-13 51.36-14.30Q51.04-15.60 50.40-16.60L50.40-16.60Q49.68-17.76 48.56-18.36Q47.44-18.96 46.16-18.96L46.16-18.96Q43.80-18.96 42.56-16.80Q41.32-14.64 41.32-10.52L41.32-10.52Q41.32-6.36 42.56-4.12Q43.80-1.88 46.12-1.88L46.12-1.88Q47.44-1.88 48.64-2.56Q49.84-3.24 50.60-4.40L50.60-4.40Q51.16-5.28 51.42-6.58Q51.68-7.88 51.68-9.92L51.68-9.92Z M73.36 0.40L67.04-16.04Q66.60-17.20 66.20-17.90Q65.80-18.60 65.38-18.98Q64.96-19.36 64.46-19.48Q63.96-19.60 63.28-19.60L63.28-19.60L63.28-21.20L75.24-21.20L75.24-19.60Q74.24-19.60 73.66-19.52Q73.08-19.44 72.78-19.28Q72.48-19.12 72.40-18.86Q72.32-18.60 72.32-18.28L72.32-18.28Q72.32-17.76 72.52-17.08Q72.72-16.40 73-15.72L73-15.72L76.80-5.24L76.96-5.24L81.24-15.68Q81.52-16.36 81.68-16.90Q81.84-17.44 81.84-17.88L81.84-17.88Q81.84-18.76 81.24-19.16Q80.64-19.56 79.12-19.60L79.12-19.60L79.12-21.20L87.96-21.20L87.96-19.60Q86.88-19.60 86.10-19.04Q85.32-18.48 84.48-16.56L84.48-16.56L77 0.40L73.36 0.40Z M109.60-5.12L110.72-3.72Q107.08 0.40 101.64 0.40L101.64 0.40Q99.16 0.40 97.14-0.38Q95.12-1.16 93.68-2.58Q92.24-4 91.44-5.96Q90.64-7.92 90.64-10.32L90.64-10.32Q90.64-12.80 91.48-14.86Q92.32-16.92 93.86-18.42Q95.40-19.92 97.50-20.76Q99.60-21.60 102.12-21.60L102.12-21.60Q106.36-21.60 108.72-19.32Q111.08-17.04 111.08-12.92L111.08-12.92Q111.08-12.28 110.88-12.14Q110.68-12 109.76-12L109.76-12L96.88-12Q96.72-11.64 96.72-10.68L96.72-10.68Q96.72-6.76 98.42-4.48Q100.12-2.20 103.04-2.20L103.04-2.20Q104.72-2.20 106.38-2.96Q108.04-3.72 109.60-5.12L109.60-5.12ZM97.16-14.24L102.96-14.24Q104.56-14.24 105.02-14.42Q105.48-14.60 105.48-15.28L105.48-15.28Q105.48-17.04 104.48-18.16Q103.48-19.28 101.96-19.28L101.96-19.28Q100.24-19.28 98.90-17.86Q97.56-16.44 97.16-14.24L97.16-14.24Z M124.80-12.04L124.80-6.52Q124.80-4.88 124.90-3.94Q125.00-3 125.34-2.50Q125.68-2 126.38-1.84Q127.08-1.68 128.28-1.60L128.28-1.60L128.28 0L115.68 0L115.68-1.60Q116.84-1.68 117.54-1.84Q118.24-2 118.62-2.48Q119.00-2.96 119.12-3.84Q119.24-4.72 119.24-6.24L119.24-6.24L119.24-11.24Q119.24-13.60 119.16-15.06Q119.08-16.52 118.96-17.04L118.96-17.04Q118.84-17.56 118.64-17.90Q118.44-18.24 118.04-18.42Q117.64-18.60 117.04-18.66Q116.44-18.72 115.52-18.72L115.52-18.72L115.52-20.08L123.24-21.60L123.76-18.08L123.92-18.08Q125.24-19.76 127.04-20.68Q128.84-21.60 131-21.60L131-21.60Q133.56-21.60 135.14-20.90Q136.72-20.20 137.96-18.56L137.96-18.56Q138.64-17.64 139.16-16.18Q139.68-14.72 139.68-12.16L139.68-12.16L139.68-6.52Q139.68-4.88 139.78-3.94Q139.88-3 140.22-2.50Q140.56-2 141.24-1.84Q141.92-1.68 143.08-1.60L143.08-1.60L143.08 0L130.56 0L130.56-1.60Q131.76-1.64 132.46-1.82Q133.16-2 133.52-2.48Q133.88-2.96 134-3.86Q134.12-4.76 134.12-6.24L134.12-6.24L134.12-11.68Q134.12-13.72 133.88-15.12Q133.64-16.52 133.10-17.38Q132.56-18.24 131.68-18.62Q130.80-19 129.48-19L129.48-19Q128.20-19 127.28-18.28Q126.36-17.56 125.68-16.28L125.68-16.28Q125.32-15.56 125.06-14.42Q124.80-13.28 124.80-12.04L124.80-12.04Z M149.52-19L146.60-19L146.60-20.80Q149.00-21.48 150.62-22.86Q152.24-24.24 153.04-26.04L153.04-26.04L155.08-26.04L155.08-21.20L159.68-21.20L159.68-19L155.08-19L155.08-6.72Q155.08-4.24 155.62-3.20Q156.16-2.16 157.44-2.16L157.44-2.16Q159.00-2.16 159.80-3.60L159.80-3.60L160.64-2.44Q159.52 0.40 155.36 0.40L155.36 0.40Q152.60 0.40 151.06-0.88Q149.52-2.16 149.52-4.48L149.52-4.48L149.52-19Z M181.48-10.48L181.48-14.64Q181.48-16.24 181.40-17.18Q181.32-18.12 180.96-18.62Q180.60-19.12 179.90-19.30Q179.20-19.48 178.00-19.60L178.00-19.60L178.00-21.20L187.04-21.20L187.04-9.08Q187.04-6.64 187.10-5.26Q187.16-3.88 187.32-3.20L187.32-3.20Q187.44-2.68 187.60-2.38Q187.76-2.08 188.12-1.90Q188.48-1.72 189.10-1.66Q189.72-1.60 190.72-1.60L190.72-1.60L190.72-0.04L182.76 0.44L182.32-3.12L182.16-3.12Q181.12-1.44 179.24-0.52Q177.36 0.40 175.04 0.40L175.04 0.40Q170.76 0.40 168.52-2.64L168.52-2.64Q166.80-4.96 166.80-9.24L166.80-9.24L166.80-14.64Q166.80-16.28 166.72-17.22Q166.64-18.16 166.30-18.64Q165.96-19.12 165.28-19.30Q164.60-19.48 163.40-19.60L163.40-19.60L163.40-21.20L172.36-21.20L172.36-9.88Q172.36-5.84 173.36-4.02Q174.36-2.20 176.56-2.20L176.56-2.20Q178.92-2.20 180.20-4.36L180.20-4.36Q181.48-6.44 181.48-10.48L181.48-10.48Z M203.56-8.12L203.56-6.20Q203.56-4.64 203.70-3.74Q203.84-2.84 204.28-2.36Q204.72-1.88 205.56-1.74Q206.40-1.60 207.80-1.60L207.80-1.60L207.80 0L194.44 0L194.44-1.60Q195.64-1.68 196.36-1.84Q197.08-2 197.44-2.48Q197.80-2.96 197.90-3.86Q198-4.76 198-6.28L198-6.28L198-11.16Q198-13.64 197.88-15.12Q197.76-16.60 197.36-17.40Q196.96-18.20 196.22-18.46Q195.48-18.72 194.28-18.72L194.28-18.72L194.28-20.12L202.28-21.60L202.92-17L203.08-17Q204.16-19.12 205.92-20.36Q207.68-21.60 209.64-21.60L209.64-21.60Q211.16-21.60 212.12-20.84Q213.08-20.08 213.08-18.92L213.08-18.92Q213.08-17.64 212.34-16.76Q211.60-15.88 210.32-15.88L210.32-15.88Q209.72-15.88 209.24-16.12Q208.76-16.36 208.38-16.66Q208-16.96 207.62-17.22Q207.24-17.48 206.84-17.48L206.84-17.48Q206.08-17.48 205.40-16.48Q204.72-15.48 204.28-13.80L204.28-13.80Q203.96-12.60 203.76-11.10Q203.56-9.60 203.56-8.12L203.56-8.12Z M235.40-5.12L236.52-3.72Q232.88 0.40 227.44 0.40L227.44 0.40Q224.96 0.40 222.94-0.38Q220.92-1.16 219.48-2.58Q218.04-4 217.24-5.96Q216.44-7.92 216.44-10.32L216.44-10.32Q216.44-12.80 217.28-14.86Q218.12-16.92 219.66-18.42Q221.20-19.92 223.30-20.76Q225.40-21.60 227.92-21.60L227.92-21.60Q232.16-21.60 234.52-19.32Q236.88-17.04 236.88-12.92L236.88-12.92Q236.88-12.28 236.68-12.14Q236.48-12 235.56-12L235.56-12L222.68-12Q222.52-11.64 222.52-10.68L222.52-10.68Q222.52-6.76 224.22-4.48Q225.92-2.20 228.84-2.20L228.84-2.20Q230.52-2.20 232.18-2.96Q233.84-3.72 235.40-5.12L235.40-5.12ZM222.96-14.24L228.76-14.24Q230.36-14.24 230.82-14.42Q231.28-14.60 231.28-15.28L231.28-15.28Q231.28-17.04 230.28-18.16Q229.28-19.28 227.76-19.28L227.76-19.28Q226.04-19.28 224.70-17.86Q223.36-16.44 222.96-14.24L222.96-14.24Z M244.60-1.40L243.72 0L242.48 0L242.48-7.28L244.16-7.28Q244.84-4.40 246.12-3.08Q247.40-1.76 249.44-1.76L249.44-1.76Q250.92-1.76 251.74-2.38Q252.56-3 252.56-4.08L252.56-4.08Q252.56-5.20 251.56-6.26Q250.56-7.32 248.32-8.52L248.32-8.52Q245.28-10.16 243.96-11.78Q242.64-13.40 242.64-15.44L242.64-15.44Q242.64-16.76 243.14-17.90Q243.64-19.04 244.50-19.88Q245.36-20.72 246.56-21.18Q247.76-21.64 249.16-21.64L249.16-21.64Q250.40-21.64 251.62-21.28Q252.84-20.92 253.76-20.28L253.76-20.28L254.48-21.24L255.52-21.24L255.52-15.20L253.96-15.20Q253.04-17.48 252.06-18.48Q251.08-19.48 249.68-19.48L249.68-19.48Q248.56-19.48 247.90-18.88Q247.24-18.28 247.24-17.28L247.24-17.28Q247.24-16.16 248.22-15.16Q249.20-14.16 251.48-12.96L251.48-12.96Q253.08-12.08 254.24-11.24Q255.40-10.40 256.12-9.54Q256.84-8.68 257.18-7.74Q257.52-6.80 257.52-5.72L257.52-5.72Q257.52-4.32 257-3.20Q256.48-2.08 255.52-1.28Q254.56-0.48 253.22-0.04Q251.88 0.40 250.24 0.40L250.24 0.40Q248.52 0.40 247.04-0.06Q245.56-0.52 244.60-1.40L244.60-1.40Z M292-30.80L292.40-22L290.68-22Q290.56-23.96 290.10-25.26Q289.64-26.56 288.80-27.34Q287.96-28.12 286.76-28.42Q285.56-28.72 283.96-28.72L283.96-28.72Q282.40-28.72 281.46-28.66Q280.52-28.60 280.02-28.46Q279.52-28.32 279.36-28.08Q279.20-27.84 279.20-27.48L279.20-27.48L279.20-6.52Q279.20-5.24 279.38-4.32Q279.56-3.40 280.12-2.82Q280.68-2.24 281.76-1.94Q282.84-1.64 284.60-1.60L284.60-1.60L284.60 0L267.84 0L267.84-1.60Q269.64-1.64 270.72-1.94Q271.80-2.24 272.38-2.82Q272.96-3.40 273.14-4.32Q273.32-5.24 273.32-6.52L273.32-6.52L273.32-27.48Q273.32-27.84 273.18-28.08Q273.04-28.32 272.60-28.46Q272.16-28.60 271.34-28.66Q270.52-28.72 269.20-28.72L269.20-28.72Q267.76-28.72 266.44-28.58Q265.12-28.44 264.12-27.78Q263.12-27.12 262.50-25.78Q261.88-24.44 261.84-22L261.84-22L260.28-22L260.68-30.80L292-30.80Z M303.96-8.12L303.96-6.20Q303.96-4.64 304.10-3.74Q304.24-2.84 304.68-2.36Q305.12-1.88 305.96-1.74Q306.80-1.60 308.20-1.60L308.20-1.60L308.20 0L294.84 0L294.84-1.60Q296.04-1.68 296.76-1.84Q297.48-2 297.84-2.48Q298.20-2.96 298.30-3.86Q298.40-4.76 298.40-6.28L298.40-6.28L298.40-11.16Q298.40-13.64 298.28-15.12Q298.16-16.60 297.76-17.40Q297.36-18.20 296.62-18.46Q295.88-18.72 294.68-18.72L294.68-18.72L294.68-20.12L302.68-21.60L303.32-17L303.48-17Q304.56-19.12 306.32-20.36Q308.08-21.60 310.04-21.60L310.04-21.60Q311.56-21.60 312.52-20.84Q313.48-20.08 313.48-18.92L313.48-18.92Q313.48-17.64 312.74-16.76Q312-15.88 310.72-15.88L310.72-15.88Q310.12-15.88 309.64-16.12Q309.16-16.36 308.78-16.66Q308.40-16.96 308.02-17.22Q307.64-17.48 307.24-17.48L307.24-17.48Q306.48-17.48 305.80-16.48Q305.12-15.48 304.68-13.80L304.68-13.80Q304.36-12.60 304.16-11.10Q303.96-9.60 303.96-8.12L303.96-8.12Z M329.32-7.60L329.32-11.40Q325.96-9.88 324.26-8.58Q322.56-7.28 322.56-5.88L322.56-5.88Q322.56-4.72 323.20-4.04Q323.84-3.36 324.80-3.36L324.80-3.36Q325.76-3.36 326.60-3.70Q327.44-4.04 328.04-4.60Q328.64-5.16 328.98-5.94Q329.32-6.72 329.32-7.60L329.32-7.60ZM323.68-11.08L329.32-13.52L329.32-15.20Q329.32-17.52 328.50-18.58Q327.68-19.64 325.96-19.64L325.96-19.64Q324.80-19.64 324.20-19.02Q323.60-18.40 323.08-16.96L323.08-16.96Q322.72-15.96 322.06-15.40Q321.40-14.84 320.24-14.84L320.24-14.84Q319.12-14.84 318.52-15.52Q317.92-16.20 317.92-17.44L317.92-17.44Q317.92-19.36 320.02-20.48Q322.12-21.60 326.36-21.60L326.36-21.60Q330.84-21.60 332.76-19.98Q334.68-18.36 334.68-14.56L334.68-14.56L334.68-5.80Q334.68-2.40 336.04-2.40L336.04-2.40Q336.80-2.40 337.44-2.92L337.44-2.92L338.04-1.76Q337.48-0.76 336.30-0.18Q335.12 0.40 333.64 0.40L333.64 0.40Q331.80 0.40 330.84-0.72Q329.88-1.84 329.88-3.88L329.88-3.88L329.68-3.88Q328.52-1.80 326.68-0.72Q324.84 0.36 322.48 0.36L322.48 0.36Q319.96 0.36 318.44-1.06Q316.92-2.48 316.92-4.76L316.92-4.76Q316.92-6.52 318.48-8.06Q320.04-9.60 323.68-11.08L323.68-11.08Z M360.60-4.84L361.64-3.32Q360.12-1.64 357.86-0.72Q355.60 0.20 352.96 0.20L352.96 0.20Q350.52 0.20 348.52-0.58Q346.52-1.36 345.08-2.76Q343.64-4.16 342.86-6.14Q342.08-8.12 342.08-10.52L342.08-10.52Q342.08-13 342.92-15.04Q343.76-17.08 345.28-18.54Q346.80-20 348.92-20.80Q351.04-21.60 353.60-21.60L353.60-21.60Q355.40-21.60 356.94-21.24Q358.48-20.88 359.58-20.24Q360.68-19.60 361.32-18.74Q361.96-17.88 361.96-16.88L361.96-16.88Q361.96-15.72 361.30-15.04Q360.64-14.36 359.52-14.36L359.52-14.36Q358.60-14.36 357.90-14.84Q357.20-15.32 356.52-16.40L356.52-16.40Q355.92-17.36 355.50-17.92Q355.08-18.48 354.72-18.78Q354.36-19.08 354-19.18Q353.64-19.28 353.12-19.28L353.12-19.28Q350.80-19.28 349.52-17.12Q348.24-14.96 348.24-11.08L348.24-11.08Q348.24-6.92 349.78-4.68Q351.32-2.44 354.20-2.44L354.20-2.44Q355.84-2.44 357.48-3.06Q359.12-3.68 360.60-4.84L360.60-4.84Z M379.40 0L379.40-1.60Q380.68-1.60 381.20-1.70Q381.72-1.80 381.72-2.12L381.72-2.12Q381.72-2.36 381.18-3.30Q380.64-4.24 379.80-5.48L379.80-5.48L376.76-10.04L374.76-8.12L374.76-6.56Q374.76-5 374.88-4.04Q375-3.08 375.30-2.54Q375.60-2 376.14-1.80Q376.68-1.60 377.52-1.60L377.52-1.60L377.52 0L365.72 0L365.72-1.60Q366.84-1.64 367.52-1.84Q368.20-2.04 368.60-2.54Q369-3.04 369.14-3.94Q369.28-4.84 369.28-6.28L369.28-6.28L369.28-23.24Q369.28-25.68 369.20-27.08Q369.12-28.48 368.78-29.18Q368.44-29.88 367.74-30.04Q367.04-30.20 365.84-30.20L365.84-30.20L365.84-31.68L374.76-33.20L374.76-10.96L378.60-14.60Q380.68-16.56 381.56-17.54Q382.44-18.52 382.44-18.96L382.44-18.96Q382.44-19.32 381.70-19.46Q380.96-19.60 378.96-19.60L378.96-19.60L378.96-21.20L389.88-21.20L389.88-19.60Q388.36-19.60 387.20-19.08Q386.04-18.56 384.68-17.28L384.68-17.28L380.80-13.64L387.72-3.84Q388.64-2.56 389.52-2.08Q390.40-1.60 391.84-1.60L391.84-1.60L391.84 0L379.40 0Z M413.04-5.12L414.16-3.72Q410.52 0.40 405.08 0.40L405.08 0.40Q402.60 0.40 400.58-0.38Q398.56-1.16 397.12-2.58Q395.68-4 394.88-5.96Q394.08-7.92 394.08-10.32L394.08-10.32Q394.08-12.80 394.92-14.86Q395.76-16.92 397.30-18.42Q398.84-19.92 400.94-20.76Q403.04-21.60 405.56-21.60L405.56-21.60Q409.80-21.60 412.16-19.32Q414.52-17.04 414.52-12.92L414.52-12.92Q414.52-12.28 414.32-12.14Q414.12-12 413.20-12L413.20-12L400.32-12Q400.16-11.64 400.16-10.68L400.16-10.68Q400.16-6.76 401.86-4.48Q403.56-2.20 406.48-2.20L406.48-2.20Q408.16-2.20 409.82-2.96Q411.48-3.72 413.04-5.12L413.04-5.12ZM400.60-14.24L406.40-14.24Q408-14.24 408.46-14.42Q408.92-14.60 408.92-15.28L408.92-15.28Q408.92-17.04 407.92-18.16Q406.92-19.28 405.40-19.28L405.40-19.28Q403.68-19.28 402.34-17.86Q401-16.44 400.60-14.24L400.60-14.24Z M437.20 0.40L437.20-2.56L437.04-2.56Q434.28 0.40 429.88 0.40L429.88 0.40Q427.60 0.40 425.70-0.40Q423.80-1.20 422.42-2.64Q421.04-4.08 420.28-6.06Q419.52-8.04 419.52-10.44L419.52-10.44Q419.52-12.84 420.30-14.88Q421.08-16.92 422.42-18.42Q423.76-19.92 425.62-20.76Q427.48-21.60 429.64-21.60L429.64-21.60Q431.64-21.60 433.18-21Q434.72-20.40 435.88-18.96L435.88-18.96L436.04-18.96L436.04-22.36Q436.04-24.72 435.98-26.42Q435.92-28.12 435.80-28.64L435.80-28.64Q435.60-29.48 434.58-29.86Q433.56-30.24 431.44-30.24L431.44-30.24L431.44-31.60L441.56-33.20L441.56-10.32Q441.56-7.32 441.62-5.70Q441.68-4.08 441.84-3.24L441.84-3.24Q441.92-2.72 442.08-2.40Q442.24-2.08 442.56-1.90Q442.88-1.72 443.42-1.66Q443.96-1.60 444.80-1.60L444.80-1.60L444.80-0.04L437.20 0.40ZM435.96-9.92L435.96-11.48Q435.96-13 435.64-14.30Q435.32-15.60 434.68-16.60L434.68-16.60Q433.96-17.76 432.84-18.36Q431.72-18.96 430.44-18.96L430.44-18.96Q428.08-18.96 426.84-16.80Q425.60-14.64 425.60-10.52L425.60-10.52Q425.60-6.36 426.84-4.12Q428.08-1.88 430.40-1.88L430.40-1.88Q431.72-1.88 432.92-2.56Q434.12-3.24 434.88-4.40L434.88-4.40Q435.44-5.28 435.70-6.58Q435.96-7.88 435.96-9.92L435.96-9.92Z"/></g>
</svg>
</g><g opacity="1" transform="rotate(0 163.4802 72.7946)">
<svg width="185.329" height="183.7306" x="163.4802" y="72.7946" version="1.1" preserveAspectRatio="none" viewBox="1.0182750225067139 1.4142682552337646 98.00650787353516 97.16126251220703">
  <g transform="matrix(1 0 0 1 0 0)" class="icon1"><title>Artboard 18</title><path d="M5.53,51.88A43.4,43.4,0,0,1,86.1,23.4a16,16,0,0,0-5.53,3.51l-5.44,5.36L59.35,28.86a14.71,14.71,0,0,0-7.39.31,14.55,14.55,0,0,0-5.42,3l-3.68,3.24a10.26,10.26,0,0,0,.84,16.07,14.41,14.41,0,0,0-2.31,1.67l-1.7,1.5A10.23,10.23,0,0,0,37.32,67L22.11,79.39A43.24,43.24,0,0,1,5.53,51.88Zm8.24,45.24a18.37,18.37,0,0,0,2.45.79l.33.08c.31.08.61.15.88.2l.35.06c.3.06.61.11.88.14a20.7,20.7,0,0,0,5.13.05l.88-.13a20.52,20.52,0,0,0,8.66-3.58L51.5,81l-2.06-5.4L44,72.65,27.12,86.41a10.24,10.24,0,0,1-4.68,2,10.85,10.85,0,0,1-2.66.08l-.33,0-.29,0-.42-.08-.26-.05A9,9,0,0,1,17.2,88a10.57,10.57,0,0,1-6.83-7.61A51.71,51.71,0,0,1,2.87,70,18.93,18.93,0,0,0,2,72.28,20,20,0,0,0,5.61,91.22,20.19,20.19,0,0,0,13.76,97.12ZM97.18,33.43a7.27,7.27,0,0,0-10.57-.38l-8.75,8.61-20.32-4.4a6.08,6.08,0,0,0-5.29,1.38l-3.68,3.24a1.65,1.65,0,0,0,.27,2.67l16.43,9.49-5.63,5.54-7.76-1.33a5.72,5.72,0,0,0-4.77,1.35l-1.71,1.51a1.65,1.65,0,0,0,.31,2.7l10.63,5.69,4.3,11.27a1.65,1.65,0,0,0,2.64.65L65,79.92a5.72,5.72,0,0,0,1.94-4.56l-.35-8,6.12-4.82L80,80a1.66,1.66,0,0,0,2,.94,1.66,1.66,0,0,0,.61-.34l3.68-3.24a6.08,6.08,0,0,0,2-5.07l-1.8-20.71L96.22,44a7.28,7.28,0,0,0,1-10.54Z"></path></g>
</svg>
</g></svg></svg>